/* XPM */
static char * ksirc_dock_xpm[] = {
"22 22 146 2",
"  	c None",
". 	c #CF7772",
"+ 	c #C65B56",
"@ 	c #B93C36",
"# 	c #C2544E",
"$ 	c #FAF0EF",
"% 	c #D98E8B",
"& 	c #9C0000",
"* 	c #880400",
"= 	c #C14F49",
"- 	c #C75751",
"; 	c #BC2C25",
"> 	c #9D0000",
", 	c #720300",
"' 	c #BE4D47",
") 	c #960000",
"! 	c #8C0000",
"~ 	c #860601",
"{ 	c #660200",
"] 	c #770400",
"^ 	c #6A0300",
"/ 	c #5C0200",
"( 	c #585858",
"_ 	c #565656",
": 	c #575757",
"< 	c #000000",
"[ 	c #2F2F2F",
"} 	c #060504",
"| 	c #5C72A3",
"1 	c #557CD1",
"2 	c #2757B5",
"3 	c #0F3C96",
"4 	c #082D7A",
"5 	c #092E7A",
"6 	c #0B3791",
"7 	c #7393D4",
"8 	c #507CD7",
"9 	c #4565A8",
"0 	c #565554",
"a 	c #0F0E0D",
"b 	c #070605",
"c 	c #2E2D2B",
"d 	c #334D83",
"e 	c #234CA0",
"f 	c #103B93",
"g 	c #829ED7",
"h 	c #7090D1",
"i 	c #476FC1",
"j 	c #2850A1",
"k 	c #2E487D",
"l 	c #575655",
"m 	c #11100E",
"n 	c #090908",
"o 	c #2F2F2E",
"p 	c #273C66",
"q 	c #6C8CD0",
"r 	c #6C8DD2",
"s 	c #5C80C9",
"t 	c #18439A",
"u 	c #002066",
"v 	c #22304D",
"w 	c #575756",
"x 	c #111110",
"y 	c #09090A",
"z 	c #6F8FD2",
"A 	c #466FC5",
"B 	c #2D5DC0",
"C 	c #2453B1",
"D 	c #0A2A6B",
"E 	c #111111",
"F 	c #090909",
"G 	c #597CCA",
"H 	c #406BC3",
"I 	c #2255BC",
"J 	c #103D9A",
"K 	c #0C2F75",
"L 	c #6A8ACF",
"M 	c #2858BB",
"N 	c #1048B8",
"O 	c #07338B",
"P 	c #041F56",
"Q 	c #7A99D5",
"R 	c #2858BC",
"S 	c #1148B8",
"T 	c #0A3895",
"U 	c #07286A",
"V 	c #0D3FA5",
"W 	c #4B73C6",
"X 	c #1D50B8",
"Y 	c #0F46B5",
"Z 	c #0C41AE",
"` 	c #0B3A99",
" .	c #082869",
"..	c #1C52BE",
"+.	c #14419F",
"@.	c #092A73",
"#.	c #4670C5",
"$.	c #446EC4",
"%.	c #2959BC",
"&.	c #164AB7",
"*.	c #1041AE",
"=.	c #08348D",
"-.	c #00236E",
";.	c #2C3953",
">.	c #5C584F",
",.	c #120D05",
"'.	c #080400",
").	c #312C23",
"!.	c #445C8C",
"~.	c #3167D6",
"{.	c #0B42B3",
"].	c #0E3C9C",
"^.	c #0E3687",
"/.	c #0D327D",
"(.	c #6285CD",
"_.	c #3765C1",
":.	c #2A59BD",
"<.	c #305CBE",
"[.	c #1C4EB4",
"}.	c #0C368C",
"|.	c #1A3976",
"1.	c #415173",
"2.	c #0F2042",
"3.	c #000E31",
"4.	c #09193B",
"5.	c #253556",
"6.	c #3156A1",
"7.	c #2251B1",
"8.	c #0A3999",
"9.	c #0E3C9A",
"0.	c #092C72",
"a.	c #6083CC",
"b.	c #3B68C2",
"c.	c #2153B6",
"d.	c #1347B1",
"e.	c #0F45B4",
"f.	c #1046B4",
"g.	c #1046B5",
"h.	c #0C3EA3",
"i.	c #093080",
"j.	c #082563",
"k.	c #495369",
"l.	c #313B51",
"m.	c #283349",
"n.	c #2A354B",
"o.	c #2A344A",
"                                            ",
"                    . + @                   ",
"                  # $ % & *                 ",
"                  = - ; > ,                 ",
"                  ' ) ! ~ {                 ",
"                    ] ^ /                   ",
"                                            ",
"                  ( _ _ _ _                 ",
"                  : < < < [                 ",
"                  _ < < } [ | 1 2 3 4 5 6   ",
"            7 8 9 0 a < b c d e f f         ",
"        g h i j k l m < n o p               ",
"      q r s t u v w x < y [                 ",
"    z A B C D     _ E < F [                 ",
"  G H I J K       _ E < F [                 ",
"  L M N O P       _ E < F [                 ",
"  Q R S T U       _ E < F [             V   ",
"  W X Y Z `  .    _ E < y [         ..+.@.  ",
"  #.$.%.&.*.=.-.;.>.,.< '.).!.~.{.].^./.    ",
"    (._.:.<.[.}.|.1.2.3.4.5.6.7.8.9.0.      ",
"          a.b.c.d.e.f.f.g.e.h.i.j.          ",
"                  k.l.m.n.o.                "};
